#N canvas 337 214 1388 822 12;
#X obj 415 150 t b b l l;
#X obj 644 190 stripnote;
#X obj 171 379 text define \$0-arp;
#X obj 644 216 text insert \$0-arp 128;
#X obj 564 245 unpack f f;
#X obj 564 271 spigot 0;
#X obj 631 271 == 0;
#X obj 564 297 text search \$0-arp;
#X obj 564 323 text delete \$0-arp;
#X obj 435 364 text size \$0-arp;
#X obj 319 203 spigot 0;
#X msg 319 229 sort;
#X obj 888 252 list prepend 0;
#X obj 888 278 route 0 1 2 3;
#X obj 888 374 f 0;
#X obj 918 374 + 1;
#X obj 888 400 moses 1;
#X obj 934 426 b;
#X msg 934 452 0;
#X obj 888 571 text get \$0-arp;
#X obj 888 597 makenote 127 100;
#X obj 888 623 pack f f;
#X obj 987 376 f 0;
#X obj 1017 376 - 1;
#X obj 987 402 moses 0;
#X obj 987 428 b;
#X obj 987 454 f 0;
#X obj 1033 428 moses 1;
#X obj 1079 454 b;
#X obj 435 390 t f f;
#X obj 435 416 > 0;
#X obj 435 442 change;
#X obj 508 442 moses 1;
#X obj 639 449 max 1;
#X obj 639 475 - 1;
#X obj 255 104 sel 0 1;
#X obj 965 71 t f f;
#X obj 965 97 == 1;
#X obj 965 123 ||;
#X obj 1005 97 == 0;
#X obj 860 82 loadbang;
#X msg 860 108 0;
#X msg 892 108 clear;
#X obj 1111 375 random 1;
#X obj 388 36 inlet packed notes;
#X obj 734 42 inlet release time;
#X obj 1144 28 inlet direction;
#X obj 888 649 outlet;
#X obj 543 37 inlet triggerNextNote;
#X connect 0 0 10 0;
#X connect 0 1 9 0;
#X connect 0 2 4 0;
#X connect 0 3 1 0;
#X connect 1 0 3 0;
#X connect 4 0 5 0;
#X connect 4 1 6 0;
#X connect 5 0 7 0;
#X connect 6 0 5 1;
#X connect 7 0 8 0;
#X connect 9 0 29 0;
#X connect 10 0 11 0;
#X connect 11 0 2 0;
#X connect 12 0 13 0;
#X connect 13 0 14 0;
#X connect 13 1 22 0;
#X connect 13 2 43 0;
#X connect 13 3 14 0;
#X connect 14 0 15 0;
#X connect 14 0 16 0;
#X connect 15 0 14 1;
#X connect 16 0 19 0;
#X connect 16 1 17 0;
#X connect 17 0 18 0;
#X connect 18 0 14 0;
#X connect 19 0 20 0;
#X connect 20 0 21 0;
#X connect 20 1 21 1;
#X connect 21 0 47 0;
#X connect 22 0 23 0;
#X connect 22 0 24 0;
#X connect 23 0 22 1;
#X connect 24 0 25 0;
#X connect 24 1 27 0;
#X connect 25 0 26 0;
#X connect 26 0 22 0;
#X connect 27 0 19 0;
#X connect 27 1 28 0;
#X connect 28 0 26 0;
#X connect 29 0 30 0;
#X connect 29 1 33 0;
#X connect 30 0 31 0;
#X connect 30 0 32 0;
#X connect 32 0 14 1;
#X connect 32 0 22 1;
#X connect 33 0 16 1;
#X connect 33 0 27 1;
#X connect 33 0 34 0;
#X connect 33 0 43 1;
#X connect 34 0 26 1;
#X connect 35 0 11 0;
#X connect 35 1 11 0;
#X connect 36 0 37 0;
#X connect 36 1 39 0;
#X connect 37 0 38 0;
#X connect 38 0 10 1;
#X connect 39 0 38 1;
#X connect 40 0 41 0;
#X connect 40 0 42 0;
#X connect 41 0 36 0;
#X connect 41 0 35 0;
#X connect 41 0 12 1;
#X connect 42 0 2 0;
#X connect 43 0 19 0;
#X connect 44 0 0 0;
#X connect 45 0 20 2;
#X connect 46 0 36 0;
#X connect 46 0 35 0;
#X connect 46 0 12 1;
#X connect 48 0 12 0;
