#N canvas 810 579 923 538 12;
#X obj 366 73 loadbang;
#X msg 366 97 1;
#X obj 464 172 + 1;
#X obj 431 173 f 0;
#X obj 369 219 /;
#X obj 259 288 print averageAttack;
#X obj 383 169 t f b;
#X msg 219 119 0;
#X obj 221 162 f;
#X obj 255 161 +;
#X obj 260 207 f;
#X obj 409 203 + 1;
#X obj 551 21 inlet;
#X text 401 22 Ouput avrg and reset;
#X obj 351 23 inlet;
#X text 272 23 Array name;
#X obj 213 23 inlet;
#X text 103 25 Index in array;
#X obj 392 264 outlet;
#X floatatom 505 217 5 0 0 0 - - -;
#X obj 437 143 array get;
#X connect 0 0 1 0;
#X connect 1 0 20 1;
#X connect 2 0 3 1;
#X connect 3 0 2 0;
#X connect 3 0 11 0;
#X connect 3 0 19 0;
#X connect 4 0 5 0;
#X connect 4 0 18 0;
#X connect 4 0 7 0;
#X connect 6 0 9 0;
#X connect 6 1 3 0;
#X connect 7 0 9 1;
#X connect 7 0 8 1;
#X connect 8 0 9 1;
#X connect 8 0 10 1;
#X connect 9 0 8 0;
#X connect 10 0 4 0;
#X connect 11 0 4 1;
#X connect 12 0 10 0;
#X connect 14 0 20 2;
#X connect 16 0 20 0;
#X connect 20 0 6 0;
