#N canvas 348 319 923 538 12;
#X obj 366 73 loadbang;
#X msg 366 97 1;
#X obj 448 165 + 1;
#X obj 415 166 f 0;
#X obj 369 232 /;
#X obj 345 166 t f b;
#X msg 258 160 0;
#X obj 260 203 f;
#X obj 294 202 +;
#X obj 299 248 f;
#X obj 371 200 + 1;
#X obj 551 21 inlet;
#X text 401 22 Ouput avrg and reset;
#X obj 351 23 inlet;
#X text 272 23 Array name;
#X obj 213 23 inlet;
#X text 103 25 Index in array;
#X obj 519 484 outlet;
#X obj 347 134 array get;
#X obj 521 415 f;
#X obj 524 356 select 1;
#X obj 512 257 t b f;
#X obj 480 285 f;
#X obj 526 322 !=;
#X obj 524 380 bang;
#X text 273 380 Only triggered when value changed;
#X obj 418 353 r mixmode;
#X text 181 298 this line must be connected first ->;
#X obj 520 451 max 0;
#X connect 0 0 1 0;
#X connect 1 0 18 1;
#X connect 2 0 3 1;
#X connect 3 0 2 0;
#X connect 3 0 10 0;
#X connect 4 0 6 0;
#X connect 4 0 19 1;
#X connect 4 0 21 0;
#X connect 5 0 8 0;
#X connect 5 1 3 0;
#X connect 6 0 8 1;
#X connect 6 0 7 1;
#X connect 6 0 3 1;
#X connect 7 0 8 1;
#X connect 7 0 9 1;
#X connect 8 0 7 0;
#X connect 9 0 4 0;
#X connect 10 0 4 1;
#X connect 11 0 9 0;
#X connect 13 0 18 2;
#X connect 15 0 18 0;
#X connect 18 0 5 0;
#X connect 19 0 22 1;
#X connect 19 0 28 0;
#X connect 20 0 24 0;
#X connect 21 0 22 0;
#X connect 21 1 23 1;
#X connect 22 0 23 0;
#X connect 23 0 20 0;
#X connect 24 0 19 0;
#X connect 26 0 24 0;
#X connect 28 0 17 0;
