#N canvas 0 25 1420 898 12;
#X obj 207 315 line 250;
#X obj 286 316 line 250;
#X floatatom 147 361 5 0 0 0 - - -;
#X msg 208 237 464.567;
#X msg 285 232 464.567;
#X obj 207 287 spigot;
#X obj 286 286 spigot;
#X msg 207 260 -1 \, 1 \$1;
#X msg 286 255 1 \, -1 \$1;
#X obj 207 369 sel 1;
#X obj 287 371 sel -1;
#X msg 208 199 set \$1;
#X obj 210 165 hsl 128 15 0 1000 0 0 empty empty empty -2 -8 0 10 -262144
-1 -1 0 1;
#X obj 415 179 tgl 15 0 empty empty empty 17 7 0 10 -262144 -1 -1 0
1;
#X obj 396 101 loadbang;
#X obj 76 397 * 50;
#X obj 76 422 + 50;
#X text 148 122 LFO??;
#X connect 0 0 2 0;
#X connect 0 0 9 0;
#X connect 1 0 2 0;
#X connect 1 0 10 0;
#X connect 2 0 15 0;
#X connect 3 0 7 0;
#X connect 4 0 8 0;
#X connect 5 0 0 0;
#X connect 6 0 1 0;
#X connect 7 0 5 0;
#X connect 8 0 6 0;
#X connect 9 0 4 0;
#X connect 10 0 3 0;
#X connect 11 0 3 0;
#X connect 11 0 4 0;
#X connect 12 0 11 0;
#X connect 13 0 5 1;
#X connect 13 0 6 1;
#X connect 13 0 3 0;
#X connect 14 0 13 0;
#X connect 15 0 16 0;
