#N canvas 491 286 1022 741 12;
#X obj 148 878 dac~;
#X obj 99 275 notein;
#X obj 792 34 netreceive 3000;
#X obj 1153 160 int;
#X obj 59 404 spigot;
#X obj 372 601 SynthEngine;
#X obj 223 612 SynthEngine;
#X obj 701 116 unpack f f f f f f f f f f f f f;
#X obj 503 602 SynthEngine;
#X obj 640 603 SynthEngine;
#X obj 405 710 loadbang;
#X obj 769 600 SynthEngine;
#X obj 919 601 SynthEngine;
#X obj 1059 598 SynthEngine;
#X obj 1189 599 SynthEngine;
#X obj 1323 600 SynthEngine;
#X obj 1454 600 SynthEngine;
#X obj 791 459 select 0 1 2 3 4 5 6 7 8 9;
#X obj 270 699 *~;
#X text 736 11 class pos class pos ....;
#X obj 721 766 Arp, f 8;
#X obj 61 309 pack f f;
#X obj 768 731 hradio 15 1 0 4 empty empty empty 0 -8 0 10 -262144
-1 -1 0;
#X obj 1029 194 array set array-positions;
#X obj 1259 58 array define -yrange -1 10 array-positions 16;
#X obj 1154 137 * 16;
#X obj 834 66 bang;
#X msg 1259 26 const -1;
#X obj 1390 776 metro;
#X obj 1394 824 f;
#X obj 1451 825 + 1;
#X msg 1387 738 bang;
#X obj 1489 824 % 16;
#X obj 1167 887 bang;
#X msg 1325 774 stop;
#X obj 740 821 route 0 1 2 3 4 5 6 7 8 9;
#X obj 1367 880 spigot;
#X obj 1491 896 moses 0;
#X obj 1504 857 array get array-positions;
#X obj 1580 772 loadbang;
#X msg 1649 834 1;
#X msg 1587 880 0;
#X obj 1301 711 netsend;
#X msg 1316 838 send \$1;
#X obj 1301 675 loadbang;
#X msg 1372 676 connect localhost 3003;
#X obj 1588 663 netreceive 3001;
#X obj 1547 696 bang;
#X msg 1469 752 tempo \$1 msec;
#X obj 372 232 netreceive 3002;
#X obj 371 258 symbol \$1;
#X obj 402 413 hradio 15 1 0 2 empty empty empty 0 -8 0 10 -262144
-1 -1 1;
#X obj 462 395 bang;
#X msg 356 378 set 0;
#X msg 407 379 set 1;
#X obj 560 262 loadbang;
#X msg 615 346 \; pd dsp 1;
#X obj 59 441 send midi-data;
#X obj 400 457 s mixmode;
#X obj 293 552 loadbang;
#X msg 291 583 0;
#X obj 1461 227 array define -yrange 0 1000 array-attack-lut 10;
#X obj 439 540 loadbang;
#X msg 437 570 1;
#X obj 584 530 loadbang;
#X obj 713 534 loadbang;
#X obj 841 538 loadbang;
#X obj 992 539 loadbang;
#X obj 1127 534 loadbang;
#X obj 1262 530 loadbang;
#X obj 1383 525 loadbang;
#X obj 1531 531 loadbang;
#X msg 582 560 2;
#X msg 711 564 3;
#X msg 839 568 4;
#X msg 990 569 5;
#X msg 1125 564 6;
#X msg 1260 560 7;
#X msg 1383 553 8;
#X msg 1529 561 9;
#X msg 1461 139 write array-release-lut.txt;
#X msg 1459 201 write array-attack-lut.txt;
#X obj 1258 103 loadbang;
#X msg 1260 198 read array-attack-lut.txt;
#X msg 1260 139 read array-release-lut.txt;
#X obj 65 771 vfreeverb;
#X obj 1066 448 s avgAttack;
#X obj 1066 420 AvgOfElmInArray;
#X obj 1117 366 loadbang;
#X msg 1117 393 symbol array-attack-lut;
#X obj 597 902 unpack f f;
#X obj 711 960 pack f f f;
#X obj 738 853 bng 15 250 50 0 empty empty empty 17 7 0 10 -262144
-1 -1;
#X obj 757 854 bng 15 250 50 0 empty empty empty 17 7 0 10 -262144
-1 -1;
#X obj 774 853 bng 15 250 50 0 empty empty empty 17 7 0 10 -262144
-1 -1;
#X obj 793 854 bng 15 250 50 0 empty empty empty 17 7 0 10 -262144
-1 -1;
#X obj 811 852 bng 15 250 50 0 empty empty empty 17 7 0 10 -262144
-1 -1;
#X obj 830 853 bng 15 250 50 0 empty empty empty 17 7 0 10 -262144
-1 -1;
#X obj 847 852 bng 15 250 50 0 empty empty empty 17 7 0 10 -262144
-1 -1;
#X obj 866 853 bng 15 250 50 0 empty empty empty 17 7 0 10 -262144
-1 -1;
#X msg 320 282 symbol Arp;
#X msg 408 281 symbol Mix;
#X msg 1538 716 15000;
#X obj 1618 724 /;
#X msg 337 718 0.5;
#X floatatom 731 678 5 0 0 0 - - -;
#X obj 771 924 f;
#X obj 713 902 bang;
#X obj 1209 339 spigot;
#X obj 1246 422 AvgOfElmInArray;
#X obj 1297 368 loadbang;
#X msg 1297 395 symbol array-release-lut;
#X obj 1246 450 s avgRelease;
#X obj 1142 296 f;
#X msg 1459 274 write array-sustain-lut.txt;
#X msg 1260 271 read array-sustain-lut.txt;
#X obj 1461 300 array define -yrange 0 100 array-sustain-lut 10;
#X obj 1461 165 array define -yrange 0 2000 array-release-lut 10;
#X obj 1439 431 AvgOfElmInArray;
#X obj 1490 377 loadbang;
#X msg 1490 404 symbol array-sustain-lut;
#X obj 1439 459 s avgSustain;
#X obj 556 380 switch~;
#X obj 365 310 select Arp Mix Sleep;
#X msg 560 353 0;
#X msg 514 352 1;
#X msg 1451 728 120;
#X obj 631 312 delay 2000;
#X obj 594 148 r pd;
#X obj 594 177 route dsp;
#X obj 639 265 metro 1000;
#X obj 617 206 == 0;
#X obj 589 231 print try starting DSP;
#X obj 641 289 bang;
#X obj 68 696 netreceive 3004;
#X connect 1 0 21 0;
#X connect 1 1 21 1;
#X connect 1 1 36 1;
#X connect 2 0 26 0;
#X connect 2 0 7 0;
#X connect 3 0 23 1;
#X connect 4 0 57 0;
#X connect 5 0 18 0;
#X connect 6 0 18 0;
#X connect 7 0 17 0;
#X connect 7 0 23 0;
#X connect 7 0 113 0;
#X connect 7 1 25 0;
#X connect 7 2 17 0;
#X connect 7 2 23 0;
#X connect 7 2 113 0;
#X connect 7 3 25 0;
#X connect 7 4 17 0;
#X connect 7 4 23 0;
#X connect 7 4 113 0;
#X connect 7 5 25 0;
#X connect 7 6 17 0;
#X connect 7 6 23 0;
#X connect 7 6 113 0;
#X connect 7 7 25 0;
#X connect 7 8 17 0;
#X connect 7 8 23 0;
#X connect 7 8 113 0;
#X connect 7 9 25 0;
#X connect 7 10 17 0;
#X connect 7 10 23 0;
#X connect 7 10 113 0;
#X connect 7 11 25 0;
#X connect 7 12 17 0;
#X connect 7 12 23 0;
#X connect 7 12 113 0;
#X connect 8 0 18 0;
#X connect 9 0 18 0;
#X connect 10 0 104 0;
#X connect 11 0 18 0;
#X connect 12 0 18 0;
#X connect 13 0 18 0;
#X connect 14 0 18 0;
#X connect 15 0 18 0;
#X connect 16 0 18 0;
#X connect 17 0 6 1;
#X connect 17 1 5 1;
#X connect 17 2 8 1;
#X connect 17 3 9 1;
#X connect 17 4 11 1;
#X connect 17 5 12 1;
#X connect 17 6 13 1;
#X connect 17 7 14 1;
#X connect 17 8 15 1;
#X connect 17 9 16 1;
#X connect 18 0 85 0;
#X connect 18 0 85 1;
#X connect 20 0 90 0;
#X connect 21 0 20 0;
#X connect 21 0 4 0;
#X connect 22 0 20 3;
#X connect 25 0 3 0;
#X connect 26 0 27 0;
#X connect 26 0 109 2;
#X connect 26 0 118 2;
#X connect 26 0 87 2;
#X connect 27 0 24 0;
#X connect 28 0 29 0;
#X connect 29 0 30 0;
#X connect 29 0 38 0;
#X connect 29 0 43 0;
#X connect 30 0 32 0;
#X connect 31 0 28 0;
#X connect 31 0 45 0;
#X connect 32 0 29 1;
#X connect 33 0 20 1;
#X connect 34 0 28 0;
#X connect 35 0 92 0;
#X connect 35 0 6 0;
#X connect 35 1 93 0;
#X connect 35 1 5 0;
#X connect 35 2 94 0;
#X connect 35 2 8 0;
#X connect 35 3 95 0;
#X connect 35 3 9 0;
#X connect 35 4 96 0;
#X connect 35 4 11 0;
#X connect 35 5 97 0;
#X connect 35 5 12 0;
#X connect 35 6 98 0;
#X connect 35 6 13 0;
#X connect 35 7 99 0;
#X connect 35 7 14 0;
#X connect 35 8 15 0;
#X connect 35 9 16 0;
#X connect 36 0 37 0;
#X connect 37 1 33 0;
#X connect 37 1 106 1;
#X connect 38 0 36 0;
#X connect 39 0 40 0;
#X connect 39 0 41 0;
#X connect 40 0 38 1;
#X connect 41 0 37 1;
#X connect 43 0 42 0;
#X connect 44 0 45 0;
#X connect 44 0 34 0;
#X connect 44 0 126 0;
#X connect 45 0 42 0;
#X connect 46 0 103 1;
#X connect 46 0 47 0;
#X connect 47 0 102 0;
#X connect 48 0 28 0;
#X connect 49 0 50 0;
#X connect 50 0 123 0;
#X connect 51 0 4 1;
#X connect 51 0 58 0;
#X connect 51 0 108 1;
#X connect 52 0 51 0;
#X connect 53 0 51 0;
#X connect 54 0 51 0;
#X connect 55 0 54 0;
#X connect 55 0 52 0;
#X connect 55 0 127 0;
#X connect 59 0 60 0;
#X connect 60 0 6 2;
#X connect 62 0 63 0;
#X connect 63 0 5 2;
#X connect 64 0 72 0;
#X connect 65 0 73 0;
#X connect 66 0 74 0;
#X connect 67 0 75 0;
#X connect 68 0 76 0;
#X connect 69 0 77 0;
#X connect 70 0 78 0;
#X connect 71 0 79 0;
#X connect 72 0 8 2;
#X connect 73 0 9 2;
#X connect 74 0 11 2;
#X connect 75 0 12 2;
#X connect 76 0 13 2;
#X connect 77 0 14 2;
#X connect 78 0 15 2;
#X connect 79 0 16 2;
#X connect 80 0 117 0;
#X connect 81 0 61 0;
#X connect 82 0 83 0;
#X connect 82 0 84 0;
#X connect 82 0 115 0;
#X connect 83 0 61 0;
#X connect 84 0 117 0;
#X connect 85 0 0 0;
#X connect 85 1 0 1;
#X connect 87 0 86 0;
#X connect 88 0 89 0;
#X connect 89 0 87 1;
#X connect 90 0 91 1;
#X connect 90 1 91 2;
#X connect 90 1 107 0;
#X connect 91 0 35 0;
#X connect 100 0 123 0;
#X connect 101 0 123 0;
#X connect 102 0 103 0;
#X connect 103 0 48 0;
#X connect 104 0 18 1;
#X connect 105 0 20 2;
#X connect 106 0 91 0;
#X connect 107 0 106 0;
#X connect 108 0 109 0;
#X connect 108 0 118 0;
#X connect 108 0 87 0;
#X connect 109 0 112 0;
#X connect 110 0 111 0;
#X connect 111 0 109 1;
#X connect 113 0 108 0;
#X connect 114 0 116 0;
#X connect 115 0 116 0;
#X connect 118 0 121 0;
#X connect 119 0 120 0;
#X connect 120 0 118 1;
#X connect 123 0 53 0;
#X connect 123 0 31 0;
#X connect 123 0 125 0;
#X connect 123 0 52 0;
#X connect 123 1 54 0;
#X connect 123 1 34 0;
#X connect 123 1 125 0;
#X connect 123 1 52 0;
#X connect 123 2 124 0;
#X connect 124 0 122 0;
#X connect 125 0 122 0;
#X connect 126 0 103 1;
#X connect 126 0 47 0;
#X connect 127 0 56 0;
#X connect 128 0 129 0;
#X connect 129 0 131 0;
#X connect 130 0 132 0;
#X connect 130 0 133 0;
#X connect 131 0 130 0;
#X connect 133 0 127 0;
#X connect 134 0 85 2;
