#N canvas 375 -1055 960 1027 12;
#X obj 148 683 dac~;
#X obj 85 11 notein;
#X obj 83 42 poly 1 1;
#X obj 82 78 pack 0 0 0;
#X obj 83 117 route 1;
#X obj 85 148 unpack 0 0;
#X obj 571 65 print TCP;
#X obj 571 30 netreceive 3000;
#N canvas 0 22 450 278 (subpatch) 0;
#X array Positions 32 float 3;
#A 0 0 0 0 0 0 0 1 1 0 2 0 0 0 0 0 0 0 8 0 0 0 0 0 0 0 0 0 0 0 0 0
0;
#X coords 0 10 32 -1 200 140 1 0 0;
#X restore 1187 74 graph;
#X obj 809 279 tabwrite Positions;
#X obj 934 222 * 32;
#X obj 933 245 int;
#X obj 478 235 select 0 1 2 3 4 5 6 7 8 9 10;
#X msg 514 316 all samples/test.wav;
#X obj 188 172 spigot;
#X text 1000 60 Arp section;
#X obj 453 359 SynthEngine;
#X obj 278 358 SynthEngine;
#X msg 354 316 all samples/test1.wav;
#X text 470 7 numOfDetectedObj class pos class pos ....;
#X obj 482 149 unpack f f f f f f f f f f f f f;
#X obj 264 108 print numOfDetect;
#X obj 548 94 list split 1;
#X obj 589 124 print rest;
#X obj 287 456 /~;
#X connect 1 0 2 0;
#X connect 1 1 2 1;
#X connect 2 0 3 0;
#X connect 2 1 3 1;
#X connect 2 2 3 2;
#X connect 3 0 4 0;
#X connect 4 0 5 0;
#X connect 5 0 14 0;
#X connect 5 1 14 1;
#X connect 7 0 6 0;
#X connect 7 0 22 0;
#X connect 10 0 11 0;
#X connect 11 0 9 1;
#X connect 12 0 17 1;
#X connect 12 1 16 1;
#X connect 13 0 16 2;
#X connect 14 0 17 0;
#X connect 14 0 16 0;
#X connect 16 0 24 0;
#X connect 17 0 24 0;
#X connect 18 0 17 2;
#X connect 20 0 12 0;
#X connect 20 0 9 0;
#X connect 20 1 10 0;
#X connect 20 2 12 0;
#X connect 20 2 9 0;
#X connect 20 3 10 0;
#X connect 20 4 12 0;
#X connect 20 4 9 0;
#X connect 20 5 10 0;
#X connect 20 6 12 0;
#X connect 20 6 9 0;
#X connect 20 7 10 0;
#X connect 20 8 12 0;
#X connect 20 8 9 0;
#X connect 20 9 10 0;
#X connect 20 10 12 0;
#X connect 20 10 9 0;
#X connect 20 11 10 0;
#X connect 20 12 12 0;
#X connect 20 12 9 0;
#X connect 22 0 21 0;
#X connect 22 0 24 1;
#X connect 22 1 23 0;
#X connect 22 1 20 0;
#X connect 24 0 0 0;
#X connect 24 0 0 1;
