#N canvas 472 157 887 822 12;
#X obj 148 683 dac~;
#X obj 85 11 notein;
#X obj 83 42 poly 1 1;
#X obj 82 78 pack 0 0 0;
#X obj 83 117 route 1;
#X obj 85 148 unpack 0 0;
#X obj 571 65 print TCP;
#X obj 571 30 netreceive 3000;
#N canvas 0 22 450 278 (subpatch) 0;
#X array Positions 32 float 3;
#A 0 0 0 3 0 0 0 1 1 0 2 0 0 3 0 0 0 4 8 0 0 0 0 0 0 0 0 0 0 2 0 0
0;
#X coords 0 10 32 -1 200 140 1 0 0;
#X restore 1187 74 graph;
#X obj 814 166 tabwrite Positions;
#X obj 939 109 * 32;
#X obj 938 132 int;
#X obj 112 207 spigot;
#X text 1000 60 Arp section;
#X obj 375 358 SynthEngine;
#X obj 236 362 SynthEngine;
#X obj 480 112 unpack f f f f f f f f f f f f f;
#X msg 232 336 all samples/0.wav;
#X msg 369 335 all samples/1.wav;
#X obj 506 359 SynthEngine;
#X msg 505 336 all samples/2.wav;
#X obj 643 360 SynthEngine;
#X obj 361 181 print test;
#X msg 643 336 all samples/3.wav;
#X obj 1128 227 loadbang;
#X obj 772 357 SynthEngine;
#X msg 780 335 all samples/4.wav;
#X obj 922 358 SynthEngine;
#X msg 917 334 all samples/5.wav;
#X obj 1062 355 SynthEngine;
#X msg 1061 333 all samples/6.wav;
#X obj 1192 356 SynthEngine;
#X msg 1191 333 all samples/7.wav;
#X obj 1326 357 SynthEngine;
#X msg 1322 332 all samples/8.wav;
#X obj 1457 357 SynthEngine;
#X msg 1455 332 all samples/9.wav;
#X obj 722 195 select 0 1 2 3 4 5 6 7 8 9;
#X obj 270 504 *~;
#X obj 420 578 line~;
#X msg 417 548 \$1 20;
#X obj 416 518 hsl 128 15 0 127 0 0 empty empty empty -2 -8 0 10 -262144
-1 -1 0 1;
#X msg 337 522 0.5;
#X text 470 7 class pos class pos ....;
#X obj 728 622 Arp, f 8;
#X obj 173 42 pack f f;
#X obj 775 587 hradio 15 1 0 4 empty empty empty 0 -8 0 10 -262144
-1 -1 0;
#X connect 1 0 2 0;
#X connect 1 0 45 0;
#X connect 1 1 2 1;
#X connect 1 1 45 1;
#X connect 2 0 3 0;
#X connect 2 1 3 1;
#X connect 2 2 3 2;
#X connect 3 0 4 0;
#X connect 4 0 5 0;
#X connect 5 0 12 0;
#X connect 5 1 12 1;
#X connect 7 0 6 0;
#X connect 7 0 16 0;
#X connect 10 0 11 0;
#X connect 11 0 9 1;
#X connect 12 0 15 0;
#X connect 12 0 14 0;
#X connect 12 0 19 0;
#X connect 12 0 21 0;
#X connect 12 0 25 0;
#X connect 12 0 27 0;
#X connect 12 0 29 0;
#X connect 12 0 31 0;
#X connect 12 0 33 0;
#X connect 12 0 35 0;
#X connect 14 0 38 0;
#X connect 15 0 38 0;
#X connect 16 0 9 0;
#X connect 16 0 22 0;
#X connect 16 0 37 0;
#X connect 16 1 10 0;
#X connect 16 2 9 0;
#X connect 16 2 37 0;
#X connect 16 3 10 0;
#X connect 16 4 9 0;
#X connect 16 4 37 0;
#X connect 16 5 10 0;
#X connect 16 6 9 0;
#X connect 16 6 37 0;
#X connect 16 7 10 0;
#X connect 16 8 9 0;
#X connect 16 8 37 0;
#X connect 16 9 10 0;
#X connect 16 10 9 0;
#X connect 16 10 37 0;
#X connect 16 11 10 0;
#X connect 16 12 9 0;
#X connect 16 12 37 0;
#X connect 17 0 15 2;
#X connect 18 0 14 2;
#X connect 19 0 38 0;
#X connect 20 0 19 2;
#X connect 21 0 38 0;
#X connect 23 0 21 2;
#X connect 24 0 17 0;
#X connect 24 0 18 0;
#X connect 24 0 20 0;
#X connect 24 0 23 0;
#X connect 24 0 26 0;
#X connect 24 0 28 0;
#X connect 24 0 30 0;
#X connect 24 0 32 0;
#X connect 24 0 34 0;
#X connect 24 0 36 0;
#X connect 24 0 42 0;
#X connect 25 0 38 0;
#X connect 26 0 25 2;
#X connect 27 0 38 0;
#X connect 28 0 27 2;
#X connect 29 0 38 0;
#X connect 30 0 29 2;
#X connect 31 0 38 0;
#X connect 32 0 31 2;
#X connect 33 0 38 0;
#X connect 34 0 33 2;
#X connect 35 0 38 0;
#X connect 36 0 35 2;
#X connect 37 0 15 1;
#X connect 37 1 14 1;
#X connect 37 2 19 1;
#X connect 37 3 21 1;
#X connect 37 4 25 1;
#X connect 37 5 27 1;
#X connect 37 6 29 1;
#X connect 37 7 31 1;
#X connect 37 8 33 1;
#X connect 37 9 35 1;
#X connect 38 0 0 0;
#X connect 38 0 0 1;
#X connect 40 0 39 0;
#X connect 41 0 40 0;
#X connect 42 0 38 1;
#X connect 45 0 44 0;
#X connect 46 0 44 3;
