#N canvas 130 25 1280 1147 12;
#X obj 148 878 dac~;
#X obj 75 39 notein;
#X obj 792 34 netreceive 3000;
#X obj 1154 139 int;
#X obj 35 168 spigot;
#X text 1156 15 Arp section;
#X obj 372 601 SynthEngine;
#X obj 223 609 SynthEngine;
#X obj 701 116 unpack f f f f f f f f f f f f f;
#X obj 503 602 SynthEngine;
#X obj 640 603 SynthEngine;
#X obj 405 710 loadbang;
#X obj 769 600 SynthEngine;
#X obj 919 601 SynthEngine;
#X obj 1059 598 SynthEngine;
#X obj 1189 599 SynthEngine;
#X obj 1323 600 SynthEngine;
#X obj 1454 600 SynthEngine;
#X obj 791 459 select 0 1 2 3 4 5 6 7 8 9;
#X obj 270 699 *~;
#X msg 337 718 0.5;
#X text 736 11 class pos class pos ....;
#X obj 721 766 Arp, f 8;
#X obj 37 73 pack f f;
#X obj 768 731 hradio 15 1 0 4 empty empty empty 0 -8 0 10 -262144
-1 -1 0;
#X obj 1030 173 array set array-positions;
#X obj 1259 59 array define -yrange -1 10 array-positions 16;
#X obj 1155 116 * 16;
#X obj 834 66 bang;
#X msg 1259 26 const -1;
#X obj 1137 765 metro;
#X obj 1250 781 hsl 128 15 0 16 0 0 empty empty empty -2 -8 0 10 -262144
-1 -1 6350 1;
#X obj 1141 813 f;
#X obj 1198 814 + 1;
#X msg 1134 727 bang;
#X obj 1236 813 % 16;
#X obj 1284 964 bng 15 250 50 0 empty empty empty 17 7 0 10 -262144
-1 -1;
#X obj 1222 962 bang;
#X msg 1072 763 stop;
#X obj 740 821 route 0 1 2 3 4 5 6 7 8 9;
#X obj 740 851 bng 15 250 50 0 empty empty empty 17 7 0 10 -262144
-1 -1;
#X obj 774 851 bng 15 250 50 0 empty empty empty 17 7 0 10 -262144
-1 -1;
#X obj 757 851 bng 15 250 50 0 empty empty empty 17 7 0 10 -262144
-1 -1;
#X obj 791 851 bng 15 250 50 0 empty empty empty 17 7 0 10 -262144
-1 -1;
#X obj 808 851 bng 15 250 50 0 empty empty empty 17 7 0 10 -262144
-1 -1;
#X obj 826 851 bng 15 250 50 0 empty empty empty 17 7 0 10 -262144
-1 -1;
#X obj 1114 869 spigot;
#X obj 843 851 bng 15 250 50 0 empty empty empty 17 7 0 10 -262144
-1 -1;
#X obj 1238 885 moses 0;
#X obj 860 851 bng 15 250 50 0 empty empty empty 17 7 0 10 -262144
-1 -1;
#X obj 877 851 bng 15 250 50 0 empty empty empty 17 7 0 10 -262144
-1 -1;
#X obj 894 851 bng 15 250 50 0 empty empty empty 17 7 0 10 -262144
-1 -1;
#X obj 912 868 bng 15 250 50 0 empty empty empty 17 7 0 10 -262144
-1 -1;
#X obj 1376 827 array get array-positions;
#X obj 1452 742 loadbang;
#X msg 1521 804 1;
#X msg 1334 869 0;
#X obj 1048 700 netsend;
#X floatatom 1068 800 5 0 0 0 - - -;
#X msg 1063 827 send \$1;
#X obj 1048 664 loadbang;
#X floatatom 1362 741 5 0 0 0 - - -;
#X msg 1119 665 connect localhost 3003;
#X obj 1324 657 netreceive 3001;
#X obj 1365 713 /;
#X msg 1318 690 60000;
#X obj 1427 689 bang;
#X msg 1216 741 tempo \$1 msec;
#X obj 238 127 bng 15 250 50 0 empty empty empty 17 7 0 10 -262144
-1 -1;
#X obj 190 126 bng 15 250 50 0 empty empty empty 17 7 0 10 -262144
-1 -1;
#X obj 139 9 netreceive 3002;
#X obj 286 128 bng 15 250 50 0 empty empty empty 17 7 0 10 -262144
-1 -1;
#X obj 182 36 symbol \$1;
#X obj 189 81 select Arp Mix;
#X obj 228 184 hradio 15 1 0 2 empty empty empty 0 -8 0 10 -262144
-1 -1 0;
#X floatatom 296 222 5 0 0 0 - - -;
#X obj 299 169 bang;
#X msg 180 149 set 0;
#X msg 231 150 set 1;
#X obj 328 50 loadbang;
#X msg 333 80 \; pd dsp 1;
#X obj 35 205 send midi-data;
#X obj 263 252 s mixmode;
#X obj 293 552 loadbang;
#X msg 291 583 0;
#X obj 1444 249 array define -yrange 0 1000 array-attack-lut 10;
#X obj 439 540 loadbang;
#X msg 437 570 1;
#X obj 584 530 loadbang;
#X obj 713 534 loadbang;
#X obj 841 538 loadbang;
#X obj 992 539 loadbang;
#X obj 1127 534 loadbang;
#X obj 1262 530 loadbang;
#X obj 1388 280 loadbang;
#X obj 1531 531 loadbang;
#X msg 582 560 2;
#X msg 711 564 3;
#X msg 839 568 4;
#X msg 990 569 5;
#X msg 1125 564 6;
#X msg 1260 560 7;
#X msg 1383 553 8;
#X msg 1529 561 9;
#X obj 1445 188 array define -yrange 0 1000 array-release-lut 10;
#X msg 1445 162 write array-release-lut.txt;
#X msg 1443 224 write array-attack-lut.txt;
#X obj 1242 126 loadbang;
#X msg 1240 176 read array-attack-lut.txt;
#X msg 1241 155 read array-release-lut.txt;
#X obj 140 811 vfreeverb;
#X obj 538 242 loadbang;
#X msg 538 266 1;
#X obj 537 328 + 1;
#X obj 501 342 f 0;
#X obj 442 375 /;
#X obj 440 420 s avgAttack;
#X obj 456 325 t f b;
#X msg 397 283 0;
#X obj 397 236 r avgAttack;
#X obj 309 327 f;
#X obj 343 326 +;
#X obj 348 372 f;
#X obj 482 359 + 1;
#X obj 397 259 bang;
#X obj 510 159 t f f;
#X obj 510 313 array get array-attack-lut;
#X msg 625 270 array-attack-lut;
#X obj 523 191 AvgOfElmInArray;
#X obj 571 121 loadbang;
#X floatatom 536 365 5 0 0 0 - - -;
#X msg 583 163 symbol array-attack-lut;
#X obj 597 902 unpack f f;
#X obj 711 960 pack f f f;
#X connect 1 0 23 0;
#X connect 1 1 23 1;
#X connect 1 1 46 1;
#X connect 2 0 28 0;
#X connect 2 0 8 0;
#X connect 3 0 25 1;
#X connect 4 0 81 0;
#X connect 6 0 19 0;
#X connect 7 0 19 0;
#X connect 8 0 18 0;
#X connect 8 0 25 0;
#X connect 8 0 125 0;
#X connect 8 1 27 0;
#X connect 8 2 18 0;
#X connect 8 2 25 0;
#X connect 8 2 125 0;
#X connect 8 3 27 0;
#X connect 8 4 18 0;
#X connect 8 4 25 0;
#X connect 8 4 125 0;
#X connect 8 5 27 0;
#X connect 8 6 18 0;
#X connect 8 6 25 0;
#X connect 8 6 125 0;
#X connect 8 7 27 0;
#X connect 8 8 18 0;
#X connect 8 8 25 0;
#X connect 8 8 125 0;
#X connect 8 9 27 0;
#X connect 8 10 18 0;
#X connect 8 10 25 0;
#X connect 8 10 125 0;
#X connect 8 11 27 0;
#X connect 8 12 18 0;
#X connect 8 12 25 0;
#X connect 8 12 125 0;
#X connect 9 0 19 0;
#X connect 10 0 19 0;
#X connect 11 0 20 0;
#X connect 12 0 19 0;
#X connect 13 0 19 0;
#X connect 14 0 19 0;
#X connect 15 0 19 0;
#X connect 16 0 19 0;
#X connect 17 0 19 0;
#X connect 18 0 7 1;
#X connect 18 1 6 1;
#X connect 18 2 9 1;
#X connect 18 3 10 1;
#X connect 18 4 12 1;
#X connect 18 5 13 1;
#X connect 18 6 14 1;
#X connect 18 7 15 1;
#X connect 18 8 16 1;
#X connect 18 9 17 1;
#X connect 19 0 110 0;
#X connect 19 0 110 1;
#X connect 20 0 19 1;
#X connect 22 0 132 0;
#X connect 23 0 22 0;
#X connect 23 0 4 0;
#X connect 24 0 22 3;
#X connect 27 0 3 0;
#X connect 28 0 29 0;
#X connect 28 0 122 0;
#X connect 28 0 128 2;
#X connect 29 0 26 0;
#X connect 30 0 32 0;
#X connect 32 0 33 0;
#X connect 32 0 31 0;
#X connect 32 0 53 0;
#X connect 32 0 59 0;
#X connect 33 0 35 0;
#X connect 34 0 30 0;
#X connect 35 0 32 1;
#X connect 37 0 36 0;
#X connect 37 0 22 1;
#X connect 38 0 30 0;
#X connect 39 0 40 0;
#X connect 39 0 7 0;
#X connect 39 1 42 0;
#X connect 39 1 6 0;
#X connect 39 2 41 0;
#X connect 39 2 9 0;
#X connect 39 3 43 0;
#X connect 39 3 10 0;
#X connect 39 4 44 0;
#X connect 39 4 12 0;
#X connect 39 5 45 0;
#X connect 39 5 13 0;
#X connect 39 6 47 0;
#X connect 39 6 14 0;
#X connect 39 7 49 0;
#X connect 39 7 15 0;
#X connect 39 8 50 0;
#X connect 39 8 16 0;
#X connect 39 9 51 0;
#X connect 39 9 17 0;
#X connect 39 10 52 0;
#X connect 46 0 48 0;
#X connect 48 1 37 0;
#X connect 48 1 133 0;
#X connect 53 0 46 0;
#X connect 54 0 55 0;
#X connect 54 0 56 0;
#X connect 55 0 53 1;
#X connect 56 0 48 1;
#X connect 58 0 59 0;
#X connect 59 0 57 0;
#X connect 60 0 62 0;
#X connect 62 0 57 0;
#X connect 63 0 64 1;
#X connect 63 0 66 0;
#X connect 64 0 61 0;
#X connect 64 0 67 0;
#X connect 65 0 64 0;
#X connect 66 0 65 0;
#X connect 67 0 30 0;
#X connect 70 0 72 0;
#X connect 72 0 73 0;
#X connect 72 0 76 0;
#X connect 73 0 69 0;
#X connect 73 0 77 0;
#X connect 73 0 34 0;
#X connect 73 1 68 0;
#X connect 73 1 78 0;
#X connect 73 1 38 0;
#X connect 73 2 71 0;
#X connect 74 0 75 0;
#X connect 74 0 4 1;
#X connect 74 0 82 0;
#X connect 76 0 74 0;
#X connect 77 0 74 0;
#X connect 78 0 74 0;
#X connect 79 0 78 0;
#X connect 79 0 80 0;
#X connect 79 0 76 0;
#X connect 83 0 84 0;
#X connect 84 0 7 2;
#X connect 86 0 87 0;
#X connect 87 0 6 2;
#X connect 88 0 96 0;
#X connect 89 0 97 0;
#X connect 90 0 98 0;
#X connect 91 0 99 0;
#X connect 92 0 100 0;
#X connect 93 0 101 0;
#X connect 94 0 102 0;
#X connect 95 0 103 0;
#X connect 96 0 9 2;
#X connect 97 0 10 2;
#X connect 98 0 12 2;
#X connect 99 0 13 2;
#X connect 100 0 14 2;
#X connect 101 0 15 2;
#X connect 102 0 16 2;
#X connect 103 0 17 2;
#X connect 105 0 104 0;
#X connect 106 0 85 0;
#X connect 107 0 108 0;
#X connect 107 0 109 0;
#X connect 108 0 85 0;
#X connect 109 0 104 0;
#X connect 110 0 0 0;
#X connect 110 1 0 1;
#X connect 111 0 112 0;
#X connect 112 0 126 1;
#X connect 113 0 114 1;
#X connect 114 0 113 0;
#X connect 114 0 123 0;
#X connect 114 0 130 0;
#X connect 115 0 116 0;
#X connect 115 0 118 0;
#X connect 117 0 121 0;
#X connect 117 1 114 0;
#X connect 118 0 121 1;
#X connect 118 0 120 1;
#X connect 118 0 114 1;
#X connect 119 0 124 0;
#X connect 120 0 121 1;
#X connect 120 0 122 1;
#X connect 121 0 120 0;
#X connect 122 0 115 0;
#X connect 123 0 115 1;
#X connect 124 0 118 0;
#X connect 125 0 126 0;
#X connect 125 0 128 0;
#X connect 126 0 117 0;
#X connect 129 0 131 0;
#X connect 131 0 128 1;
#X connect 132 0 133 1;
#X connect 132 1 133 2;
#X connect 133 0 39 0;
