#N canvas -1 25 1469 1147 12;
#X obj 148 683 dac~;
#X obj 41 36 notein;
#X obj 33 103 poly 1 1;
#X obj 31 127 pack 0 0 0;
#X obj 37 150 route 1;
#X obj 36 201 unpack 0 0;
#X obj 571 30 netreceive 3000;
#X obj 938 132 int;
#X obj 68 232 spigot;
#X text 935 11 Arp section;
#X obj 375 358 SynthEngine;
#X obj 236 362 SynthEngine;
#X obj 480 112 unpack f f f f f f f f f f f f f;
#X msg 232 336 all samples/0.wav;
#X msg 369 335 all samples/1.wav;
#X obj 506 359 SynthEngine;
#X msg 505 336 all samples/2.wav;
#X obj 643 360 SynthEngine;
#X msg 643 336 all samples/3.wav;
#X obj 1128 227 loadbang;
#X obj 772 357 SynthEngine;
#X msg 780 335 all samples/4.wav;
#X obj 922 358 SynthEngine;
#X msg 917 334 all samples/5.wav;
#X obj 1062 355 SynthEngine;
#X msg 1061 333 all samples/6.wav;
#X obj 1192 356 SynthEngine;
#X msg 1191 333 all samples/7.wav;
#X obj 1326 357 SynthEngine;
#X msg 1322 332 all samples/8.wav;
#X obj 1457 357 SynthEngine;
#X msg 1455 332 all samples/9.wav;
#X obj 721 195 select 0 1 2 3 4 5 6 7 8 9;
#X obj 270 504 *~;
#X obj 420 578 line~;
#X msg 417 548 \$1 20;
#X obj 416 518 hsl 128 15 0 127 0 0 empty empty empty -2 -8 0 10 -262144
-1 -1 0 1;
#X msg 337 522 0.5;
#X text 470 7 class pos class pos ....;
#X obj 721 571 Arp, f 8;
#X obj 123 103 pack f f;
#X obj 768 536 hradio 15 1 0 4 empty empty empty 0 -8 0 10 -262144
-1 -1 0;
#X obj 814 166 array set array-positions;
#X obj 1038 55 array define -yrange -1 10 array-positions 16;
#X obj 939 109 * 16;
#X obj 429 64 bang;
#X msg 1038 22 const -1;
#X obj 1137 570 metro;
#X obj 1250 586 hsl 128 15 0 16 0 0 empty empty empty -2 -8 0 10 -262144
-1 -1 2381 1;
#X obj 1141 618 f;
#X obj 1198 619 + 1;
#X msg 1134 532 bang;
#X obj 1236 618 % 16;
#X obj 1284 769 bng 15 250 50 0 empty empty empty 17 7 0 10 -262144
-1 -1;
#X obj 1222 767 bang;
#X msg 1072 568 stop;
#X obj 740 626 route 0 1 2 3 4 5 6 7 8 9;
#X obj 773 760 pack;
#X obj 587 628 unpack 0 0;
#X obj 739 655 bng 15 250 50 0 empty empty empty 17 7 0 10 -262144
-1 -1;
#X obj 774 656 bng 15 250 50 0 empty empty empty 17 7 0 10 -262144
-1 -1;
#X obj 756 656 bng 15 250 50 0 empty empty empty 17 7 0 10 -262144
-1 -1;
#X obj 791 656 bng 15 250 50 0 empty empty empty 17 7 0 10 -262144
-1 -1;
#X obj 807 656 bng 15 250 50 0 empty empty empty 17 7 0 10 -262144
-1 -1;
#X obj 824 656 bng 15 250 50 0 empty empty empty 17 7 0 10 -262144
-1 -1;
#X obj 1114 674 spigot;
#X obj 843 656 bng 15 250 50 0 empty empty empty 17 7 0 10 -262144
-1 -1;
#X obj 1238 690 moses 0;
#X obj 860 656 bng 15 250 50 0 empty empty empty 17 7 0 10 -262144
-1 -1;
#X obj 876 656 bng 15 250 50 0 empty empty empty 17 7 0 10 -262144
-1 -1;
#X obj 893 657 bng 15 250 50 0 empty empty empty 17 7 0 10 -262144
-1 -1;
#X obj 912 700 bng 15 250 50 0 empty empty empty 17 7 0 10 -262144
-1 -1;
#X obj 1376 632 array get array-positions;
#X obj 1452 547 loadbang;
#X msg 1521 609 1;
#X msg 1334 674 0;
#X obj 1069 134 netsend;
#X floatatom 1235 126 5 0 0 0 - - -;
#X msg 1243 156 send \$1;
#X obj 1069 98 loadbang;
#X floatatom 1362 546 5 0 0 0 - - -;
#X msg 1140 99 connect localhost 3003;
#X obj 1324 462 netreceive 3001;
#X obj 1365 518 /;
#X msg 1318 495 60000;
#X obj 1393 506 bang;
#X msg 1216 546 tempo \$1 msec;
#X obj 299 132 bng 15 250 50 0 empty empty empty 17 7 0 10 -262144
-1 -1;
#X obj 251 131 bng 15 250 50 0 empty empty empty 17 7 0 10 -262144
-1 -1;
#X obj 254 21 netreceive 3002;
#X obj 347 133 bng 15 250 50 0 empty empty empty 17 7 0 10 -262144
-1 -1;
#X obj 297 48 symbol \$1;
#X obj 250 86 select Arp Mix;
#X obj 289 189 hradio 15 1 0 2 empty empty empty 0 -8 0 10 -262144
-1 -1 0;
#X obj 89 176 spigot;
#X floatatom 357 227 5 0 0 0 - - -;
#X obj 338 188 bang;
#X msg 241 154 set 0;
#X msg 292 155 set 1;
#X connect 1 0 2 0;
#X connect 1 0 40 0;
#X connect 1 1 2 1;
#X connect 1 1 40 1;
#X connect 2 0 3 0;
#X connect 2 1 3 1;
#X connect 2 2 3 2;
#X connect 3 0 4 0;
#X connect 4 0 94 0;
#X connect 5 0 8 0;
#X connect 5 1 8 1;
#X connect 5 1 65 1;
#X connect 6 0 45 0;
#X connect 6 0 12 0;
#X connect 7 0 42 1;
#X connect 8 0 11 0;
#X connect 8 0 10 0;
#X connect 8 0 15 0;
#X connect 8 0 17 0;
#X connect 8 0 20 0;
#X connect 8 0 22 0;
#X connect 8 0 24 0;
#X connect 8 0 26 0;
#X connect 8 0 28 0;
#X connect 8 0 30 0;
#X connect 10 0 33 0;
#X connect 11 0 33 0;
#X connect 12 0 32 0;
#X connect 12 0 42 0;
#X connect 12 1 44 0;
#X connect 12 2 32 0;
#X connect 12 2 42 0;
#X connect 12 3 44 0;
#X connect 12 4 32 0;
#X connect 12 4 42 0;
#X connect 12 5 44 0;
#X connect 12 6 32 0;
#X connect 12 6 42 0;
#X connect 12 7 44 0;
#X connect 12 8 32 0;
#X connect 12 8 42 0;
#X connect 12 9 44 0;
#X connect 12 10 32 0;
#X connect 12 10 42 0;
#X connect 12 11 44 0;
#X connect 12 12 32 0;
#X connect 12 12 42 0;
#X connect 13 0 11 2;
#X connect 14 0 10 2;
#X connect 15 0 33 0;
#X connect 16 0 15 2;
#X connect 17 0 33 0;
#X connect 18 0 17 2;
#X connect 19 0 13 0;
#X connect 19 0 14 0;
#X connect 19 0 16 0;
#X connect 19 0 18 0;
#X connect 19 0 21 0;
#X connect 19 0 23 0;
#X connect 19 0 25 0;
#X connect 19 0 27 0;
#X connect 19 0 29 0;
#X connect 19 0 31 0;
#X connect 19 0 37 0;
#X connect 20 0 33 0;
#X connect 21 0 20 2;
#X connect 22 0 33 0;
#X connect 23 0 22 2;
#X connect 24 0 33 0;
#X connect 25 0 24 2;
#X connect 26 0 33 0;
#X connect 27 0 26 2;
#X connect 28 0 33 0;
#X connect 29 0 28 2;
#X connect 30 0 33 0;
#X connect 31 0 30 2;
#X connect 32 0 11 1;
#X connect 32 1 10 1;
#X connect 32 2 15 1;
#X connect 32 3 17 1;
#X connect 32 4 20 1;
#X connect 32 5 22 1;
#X connect 32 6 24 1;
#X connect 32 7 26 1;
#X connect 32 8 28 1;
#X connect 32 9 30 1;
#X connect 33 0 0 0;
#X connect 33 0 0 1;
#X connect 35 0 34 0;
#X connect 36 0 35 0;
#X connect 37 0 33 1;
#X connect 39 0 58 0;
#X connect 40 0 39 0;
#X connect 41 0 39 3;
#X connect 44 0 7 0;
#X connect 45 0 46 0;
#X connect 46 0 43 0;
#X connect 47 0 49 0;
#X connect 49 0 50 0;
#X connect 49 0 48 0;
#X connect 49 0 72 0;
#X connect 49 0 78 0;
#X connect 50 0 52 0;
#X connect 51 0 47 0;
#X connect 52 0 49 1;
#X connect 54 0 53 0;
#X connect 54 0 39 1;
#X connect 55 0 47 0;
#X connect 56 0 59 0;
#X connect 56 0 11 0;
#X connect 56 1 61 0;
#X connect 56 1 10 0;
#X connect 56 2 60 0;
#X connect 56 2 15 0;
#X connect 56 3 62 0;
#X connect 56 3 17 0;
#X connect 56 4 63 0;
#X connect 56 4 20 0;
#X connect 56 5 64 0;
#X connect 56 5 22 0;
#X connect 56 6 24 0;
#X connect 56 6 66 0;
#X connect 56 7 26 0;
#X connect 56 7 68 0;
#X connect 56 8 28 0;
#X connect 56 8 69 0;
#X connect 56 9 30 0;
#X connect 56 9 70 0;
#X connect 56 10 71 0;
#X connect 57 0 56 0;
#X connect 58 0 57 0;
#X connect 65 0 67 0;
#X connect 67 1 57 1;
#X connect 67 1 54 0;
#X connect 72 0 65 0;
#X connect 73 0 74 0;
#X connect 73 0 75 0;
#X connect 74 0 72 1;
#X connect 75 0 67 1;
#X connect 77 0 78 0;
#X connect 78 0 76 0;
#X connect 79 0 81 0;
#X connect 81 0 76 0;
#X connect 82 0 83 1;
#X connect 82 0 85 0;
#X connect 83 0 80 0;
#X connect 83 0 86 0;
#X connect 84 0 83 0;
#X connect 85 0 84 0;
#X connect 86 0 47 0;
#X connect 89 0 91 0;
#X connect 91 0 92 0;
#X connect 91 0 96 0;
#X connect 92 0 88 0;
#X connect 92 0 97 0;
#X connect 92 0 51 0;
#X connect 92 1 87 0;
#X connect 92 1 98 0;
#X connect 92 1 55 0;
#X connect 92 2 90 0;
#X connect 93 0 94 1;
#X connect 93 0 95 0;
#X connect 94 0 5 0;
#X connect 96 0 93 0;
#X connect 97 0 93 0;
#X connect 98 0 93 0;
