#N canvas 541 378 882 588 12;
#X obj 148 683 dac~;
#X obj 85 11 notein;
#X obj 83 42 poly 1 1;
#X obj 82 78 pack 0 0 0;
#X obj 83 117 route 1;
#X obj 85 148 unpack 0 0;
#X obj 571 65 print TCP;
#X obj 571 30 netreceive 3000;
#N canvas 0 22 450 278 (subpatch) 0;
#X array Positions 32 float 3;
#A 0 0 0 0 0 0 0 1 1 0 2 0 0 0 0 0 0 0 8 0 0 0 0 0 0 0 0 0 0 0 0 0
0;
#X coords 0 10 32 -1 200 140 1 0 0;
#X restore 1187 74 graph;
#X obj 809 279 tabwrite Positions;
#X obj 934 222 * 32;
#X obj 933 245 int;
#X obj 478 235 select 0 1 2 3 4 5 6 7 8 9 10;
#X obj 188 172 spigot;
#X text 1000 60 Arp section;
#X obj 415 356 SynthEngine;
#X obj 278 358 SynthEngine;
#X text 470 7 numOfDetectedObj class pos class pos ....;
#X obj 482 149 unpack f f f f f f f f f f f f f;
#X obj 264 108 print numOfDetect;
#X obj 548 94 list split 1;
#X obj 589 124 print rest;
#X obj 287 456 /~;
#X msg 232 336 all samples/0.wav;
#X msg 369 335 all samples/1.wav;
#X obj 548 358 SynthEngine;
#X msg 505 336 all samples/2.wav;
#X obj 683 359 SynthEngine;
#X obj 361 181 print test;
#X msg 643 336 all samples/3.wav;
#X obj 281 282 loadbang;
#X connect 1 0 2 0;
#X connect 1 1 2 1;
#X connect 2 0 3 0;
#X connect 2 1 3 1;
#X connect 2 2 3 2;
#X connect 3 0 4 0;
#X connect 4 0 5 0;
#X connect 5 0 13 0;
#X connect 5 1 13 1;
#X connect 7 0 6 0;
#X connect 7 0 20 0;
#X connect 10 0 11 0;
#X connect 11 0 9 1;
#X connect 12 0 16 1;
#X connect 12 1 15 1;
#X connect 12 2 25 1;
#X connect 12 3 27 1;
#X connect 13 0 16 0;
#X connect 13 0 15 0;
#X connect 13 0 25 0;
#X connect 13 0 27 0;
#X connect 15 0 22 0;
#X connect 16 0 22 0;
#X connect 18 0 12 0;
#X connect 18 0 9 0;
#X connect 18 0 28 0;
#X connect 18 1 10 0;
#X connect 18 2 12 0;
#X connect 18 2 9 0;
#X connect 18 3 10 0;
#X connect 18 4 12 0;
#X connect 18 4 9 0;
#X connect 18 5 10 0;
#X connect 18 6 12 0;
#X connect 18 6 9 0;
#X connect 18 7 10 0;
#X connect 18 8 12 0;
#X connect 18 8 9 0;
#X connect 18 9 10 0;
#X connect 18 10 12 0;
#X connect 18 10 9 0;
#X connect 18 11 10 0;
#X connect 18 12 12 0;
#X connect 18 12 9 0;
#X connect 20 0 19 0;
#X connect 20 0 22 1;
#X connect 20 1 21 0;
#X connect 20 1 18 0;
#X connect 22 0 0 0;
#X connect 22 0 0 1;
#X connect 23 0 16 2;
#X connect 24 0 15 2;
#X connect 25 0 22 0;
#X connect 26 0 25 2;
#X connect 27 0 22 0;
#X connect 29 0 27 2;
#X connect 30 0 23 0;
#X connect 30 0 24 0;
#X connect 30 0 26 0;
#X connect 30 0 29 0;
