#N canvas 960 25 960 1147 12;
#X obj 91 617 dac~;
#X obj 85 11 notein;
#X obj 90 186 mtof;
#X obj 95 243 phasor~;
#X obj 164 200 / 127;
#X obj 90 296 *~;
#X obj 220 203 vsl 15 128 0 127 0 0 empty empty empty 0 -9 0 10 -262144
-1 -1 0 1;
#X obj 88 362 *~;
#X obj 183 346 / 127;
#X obj 83 42 poly 1 1;
#X obj 82 78 pack 0 0 0;
#X obj 83 117 route 1;
#X obj 85 148 unpack 0 0;
#X obj 601 143 print TCP;
#X floatatom 436 138 5 0 0 0 - - -;
#X obj 571 30 netreceive 3000;
#X obj 415 197 int, f 4;
#X floatatom 240 452 5 0 200 0 - - -;
#X obj 93 574 bob~;
#X obj 241 475 / 25;
#X floatatom 140 444 5 0 150 0 - - -;
#X obj 141 464 mtof;
#X obj 142 509 pack 0 50;
#X obj 142 534 line~;
#X floatatom 141 487 7 0 0 0 - - -;
#X obj 241 402 loadbang;
#X msg 241 427 10;
#X obj 240 503 line~;
#X obj 141 393 loadbang;
#X msg 141 418 69;
#X obj 920 753 line 250;
#X obj 999 754 line 250;
#X floatatom 860 799 5 0 0 0 - - -;
#X msg 921 675 464.567;
#X msg 998 670 464.567;
#X obj 920 725 spigot;
#X obj 999 724 spigot;
#X msg 920 698 -1 \, 1 \$1;
#X msg 999 693 1 \, -1 \$1;
#X obj 920 807 sel 1;
#X obj 1000 809 sel -1;
#X msg 921 637 set \$1;
#X obj 923 603 hsl 128 15 0 1000 0 0 empty empty empty -2 -8 0 10 -262144
-1 -1 0 1;
#X obj 1128 617 tgl 15 0 empty empty empty 17 7 0 10 -262144 -1 -1
0 1;
#X floatatom 515 650 0 0 0 0 - - -;
#X obj 1109 539 loadbang;
#X obj 789 835 * 50;
#X obj 789 860 + 50;
#X obj 49 241 osc~;
#X obj 46 294 *~;
#X obj 41 369 *~;
#X obj 510 225 select 0 1 2 3 4 5 6 7 8 9;
#X obj 138 56 tgl 15 0 empty empty empty 17 7 0 10 -262144 -1 -1 0
1;
#X floatatom 409 359 5 0 0 0 - - -;
#X obj 406 304 smoothGate;
#X obj 549 150 unpack;
#X msg 805 259 69;
#X obj 634 446 SimpleSampler;
#X msg 701 371 samples/;
#X connect 1 0 9 0;
#X connect 1 1 9 1;
#X connect 2 0 48 0;
#X connect 2 0 3 0;
#X connect 3 0 5 0;
#X connect 4 0 5 1;
#X connect 4 0 49 1;
#X connect 5 0 7 0;
#X connect 6 0 8 0;
#X connect 7 0 18 0;
#X connect 8 0 7 1;
#X connect 8 0 50 1;
#X connect 9 0 10 0;
#X connect 9 1 10 1;
#X connect 9 2 10 2;
#X connect 10 0 11 0;
#X connect 11 0 12 0;
#X connect 12 0 2 0;
#X connect 12 0 57 0;
#X connect 12 1 4 0;
#X connect 14 0 16 0;
#X connect 15 0 13 0;
#X connect 15 0 51 0;
#X connect 16 0 51 0;
#X connect 17 0 19 0;
#X connect 18 0 0 0;
#X connect 19 0 27 0;
#X connect 20 0 21 0;
#X connect 21 0 24 0;
#X connect 22 0 23 0;
#X connect 23 0 18 1;
#X connect 24 0 22 0;
#X connect 25 0 26 0;
#X connect 26 0 17 0;
#X connect 27 0 18 2;
#X connect 28 0 29 0;
#X connect 29 0 20 0;
#X connect 30 0 32 0;
#X connect 30 0 39 0;
#X connect 31 0 32 0;
#X connect 31 0 40 0;
#X connect 32 0 46 0;
#X connect 33 0 37 0;
#X connect 34 0 38 0;
#X connect 35 0 30 0;
#X connect 36 0 31 0;
#X connect 37 0 35 0;
#X connect 38 0 36 0;
#X connect 39 0 34 0;
#X connect 40 0 33 0;
#X connect 41 0 33 0;
#X connect 41 0 34 0;
#X connect 42 0 41 0;
#X connect 43 0 35 1;
#X connect 43 0 36 1;
#X connect 43 0 33 0;
#X connect 44 0 20 0;
#X connect 45 0 43 0;
#X connect 46 0 47 0;
#X connect 48 0 49 0;
#X connect 49 0 50 0;
#X connect 50 0 18 0;
#X connect 51 0 54 1;
#X connect 54 0 53 0;
#X connect 57 0 0 1;
#X connect 57 0 0 0;
#X connect 58 0 57 1;
