#N canvas 334 368 722 804 12;
#X obj 237 152 soundfiler;
#X obj 330 476 loadbang;
#X obj 330 499 samplerate~;
#X obj 229 514 / 1;
#X obj 225 543 expr 1000 * $f1 / $f2;
#X obj 235 451 t b f;
#X obj 66 264 inlet;
#X obj 101 364 expr pow(2 \, ($f1-60)/12);
#X obj 534 638 outlet~;
#X obj 57 100 array define \$0-mySample;
#X obj 237 101 list append \$0-mySample;
#X msg 237 77 read -resize \$1;
#X obj 237 123 route list;
#X obj 236 25 inlet;
#X obj 238 54 symbol;
#X text 138 150 sample length;
#X obj 534 401 random 100;
#X text 10 263 midi in;
#X text 132 25 sample path in;
#X obj 74 301 unpack;
#X obj 252 178 s \$0-file_duration;
#X msg 531 468 next \$1;
#X obj 223 601 s \$0-playbackSpeed;
#X obj 490 591 *~;
#X obj 477 304 select 0;
#X obj 244 310 moses 1;
#X obj 533 432 / 100;
#X obj 488 21 inlet;
#X msg 318 245 -1;
#X obj 402 229 unpack f f f;
#X obj 289 345 metro 10;
#X obj 514 519 clone TabReader 12 \$0;
#X obj 333 274 ADSR 1 1 200 100 1000;
#X obj 1480 488 print sustain;
#X obj 1490 498 print sustain;
#X obj 1500 508 print sustain;
#X obj 1510 518 print sustain;
#X obj 1520 528 print sustain;
#X text 326 22 envelope parameters in;
#X connect 0 0 3 0;
#X connect 0 0 20 0;
#X connect 1 0 2 0;
#X connect 2 0 4 1;
#X connect 3 0 4 0;
#X connect 4 0 22 0;
#X connect 5 0 3 0;
#X connect 5 1 3 1;
#X connect 6 0 19 0;
#X connect 7 0 5 0;
#X connect 10 0 12 0;
#X connect 11 0 10 0;
#X connect 12 0 0 0;
#X connect 13 0 14 0;
#X connect 14 0 11 0;
#X connect 16 0 26 0;
#X connect 19 0 7 0;
#X connect 19 1 25 0;
#X connect 21 0 31 0;
#X connect 23 0 8 0;
#X connect 24 0 30 0;
#X connect 25 0 32 0;
#X connect 25 1 28 0;
#X connect 25 1 30 0;
#X connect 26 0 21 0;
#X connect 27 0 29 0;
#X connect 28 0 32 0;
#X connect 29 0 32 2;
#X connect 29 1 32 4;
#X connect 29 2 32 5;
#X connect 30 0 16 0;
#X connect 31 0 23 1;
#X connect 32 0 23 0;
#X connect 32 1 24 0;
