#N canvas 137 25 722 507 12;
#X obj 296 154 soundfiler;
#X floatatom 293 180 5 0 0 0 length_of_sample - -;
#X obj 510 121 *~ 0.5;
#X obj 513 72 *~;
#X obj 513 49 line~;
#X obj 156 203 loadbang;
#X obj 156 226 samplerate~;
#X obj 301 393 / 1;
#X msg 287 461 0 \, 1 \$1;
#X obj 297 422 expr 1000 * $f1 / $f2;
#X obj 235 451 t b f;
#X obj 66 264 inlet;
#X obj 101 364 expr pow(2 \, ($f1-60)/12);
#X obj 510 155 outlet~;
#X obj 512 197 array define \$0-mySample;
#X obj 296 103 list append \$0-mySample;
#X msg 296 79 read -resize \$1;
#X msg 27 85 read -resize samples/test.wav;
#X obj 296 125 route list;
#X obj 510 97 tabread4~ \$0-mySample;
#X obj 295 27 inlet;
#X obj 297 56 symbol;
#X connect 0 0 1 0;
#X connect 1 0 3 1;
#X connect 1 0 7 0;
#X connect 2 0 13 0;
#X connect 3 0 19 0;
#X connect 4 0 3 0;
#X connect 5 0 6 0;
#X connect 5 0 17 0;
#X connect 6 0 9 1;
#X connect 7 0 9 0;
#X connect 8 0 4 0;
#X connect 9 0 8 0;
#X connect 10 0 7 0;
#X connect 10 1 7 1;
#X connect 11 0 12 0;
#X connect 12 0 10 0;
#X connect 15 0 18 0;
#X connect 16 0 15 0;
#X connect 17 0 15 0;
#X connect 18 0 0 0;
#X connect 19 0 2 0;
#X connect 20 0 21 0;
#X connect 21 0 16 0;
