#N canvas 235 311 722 804 12;
#X obj 296 154 soundfiler;
#X obj 432 350 loadbang;
#X obj 432 373 samplerate~;
#X obj 229 514 / 1;
#X obj 225 543 expr 1000 * $f1 / $f2;
#X obj 235 451 t b f;
#X obj 66 264 inlet;
#X obj 101 364 expr pow(2 \, ($f1-60)/12);
#X obj 534 638 outlet~;
#X obj 512 197 array define \$0-mySample;
#X obj 296 103 list append \$0-mySample;
#X msg 296 79 read -resize \$1;
#X obj 296 125 route list;
#X obj 295 27 inlet;
#X obj 297 56 symbol;
#X text 197 152 sample length;
#X obj 545 357 random 100;
#X text 10 263 midi in;
#X text 191 27 sample path in;
#X obj 74 301 unpack;
#X obj 327 196 s \$0-file_duration;
#X msg 531 468 next \$1;
#X obj 223 601 s \$0-playbackSpeed;
#X obj 289 345 metro 15;
#X obj 490 591 *~;
#X obj 444 635 print;
#X obj 411 323 select 0;
#X obj 244 310 moses 1;
#X obj 569 406 / 100;
#X obj 333 273 ADSR 1 100 900 100 1500;
#X obj 525 36 inlet;
#X obj 481 241 unpack f f;
#X msg 318 245 -1;
#X obj 514 519 clone Tabreader 12 \$0;
#X connect 0 0 3 0;
#X connect 0 0 20 0;
#X connect 1 0 2 0;
#X connect 2 0 4 1;
#X connect 3 0 4 0;
#X connect 4 0 22 0;
#X connect 5 0 3 0;
#X connect 5 1 3 1;
#X connect 6 0 19 0;
#X connect 7 0 5 0;
#X connect 10 0 12 0;
#X connect 11 0 10 0;
#X connect 12 0 0 0;
#X connect 13 0 14 0;
#X connect 14 0 11 0;
#X connect 16 0 28 0;
#X connect 19 0 7 0;
#X connect 19 1 27 0;
#X connect 21 0 33 0;
#X connect 23 0 16 0;
#X connect 24 0 8 0;
#X connect 26 0 23 0;
#X connect 27 0 29 0;
#X connect 27 1 23 0;
#X connect 27 1 32 0;
#X connect 28 0 21 0;
#X connect 29 0 24 0;
#X connect 29 1 26 0;
#X connect 30 0 31 0;
#X connect 31 0 29 2;
#X connect 31 1 29 5;
#X connect 32 0 29 0;
#X connect 33 0 24 1;
