#N canvas 426 368 722 804 12;
#X obj 296 154 soundfiler;
#X obj 510 121 *~ 0.5;
#X obj 513 72 *~;
#X obj 513 49 line~;
#X obj 156 203 loadbang;
#X obj 156 226 samplerate~;
#X obj 301 393 / 1;
#X obj 297 422 expr 1000 * $f1 / $f2;
#X obj 235 451 t b f;
#X obj 66 264 inlet;
#X obj 101 364 expr pow(2 \, ($f1-60)/12);
#X obj 510 155 outlet~;
#X obj 512 197 array define \$0-mySample;
#X obj 296 103 list append \$0-mySample;
#X msg 296 79 read -resize \$1;
#X obj 296 125 route list;
#X obj 510 97 tabread4~ \$0-mySample;
#X obj 295 27 inlet;
#X obj 297 56 symbol;
#X text 197 152 sample length;
#X obj 517 319 bang;
#X obj 545 357 random 100;
#X obj 569 405 / 100;
#X obj 587 496 + 1;
#X obj 454 544 pack 0 0 0;
#X msg 340 568 \$1 \, \$2 \$3;
#X text 10 263 midi in;
#X text 191 27 sample path in;
#X obj 74 301 unpack;
#X floatatom 61 375 5 0 0 0 - - -;
#X floatatom 131 333 5 0 0 0 - - -;
#X obj 178 318 metro 50;
#X msg 509 218 next \$1;
#X obj 215 112 print;
#X obj 473 268 clone Tabreader 6 \$0;
#X connect 0 0 2 1;
#X connect 0 0 6 0;
#X connect 2 0 16 0;
#X connect 3 0 2 0;
#X connect 4 0 5 0;
#X connect 5 0 7 1;
#X connect 6 0 7 0;
#X connect 7 0 24 2;
#X connect 8 0 6 0;
#X connect 8 1 6 1;
#X connect 9 0 28 0;
#X connect 10 0 8 0;
#X connect 13 0 15 0;
#X connect 14 0 13 0;
#X connect 14 0 33 0;
#X connect 15 0 0 0;
#X connect 16 0 1 0;
#X connect 17 0 18 0;
#X connect 18 0 14 0;
#X connect 20 0 21 0;
#X connect 21 0 22 0;
#X connect 22 0 23 0;
#X connect 22 0 24 0;
#X connect 23 0 24 1;
#X connect 24 0 25 0;
#X connect 25 0 3 0;
#X connect 25 0 32 0;
#X connect 28 0 10 0;
#X connect 28 0 29 0;
#X connect 28 1 30 0;
#X connect 28 1 31 0;
#X connect 31 0 20 0;
#X connect 32 0 34 0;
#X connect 34 0 11 0;
