#N canvas 947 597 407 447 12;
#X msg 170 70 bang;
#X obj 173 24 inlet;
#X obj 56 404 outlet;
#X obj 75 164 inlet;
#X obj 206 138 delay 1000;
#X obj 211 239 tgl 15 0 empty empty empty 17 7 0 10 -262144 -1 -1 1
1;
#X obj 53 340 spigot;
#X obj 133 200 spigot;
#X obj 211 277 - 1;
#X obj 247 194 loadbang;
#X obj 16 247 select 0;
#X obj 6 217 unpack f f;
#X obj 22 296 list;
#X obj 23 273 bang;
#X connect 0 0 4 0;
#X connect 0 0 7 0;
#X connect 1 0 0 0;
#X connect 3 0 6 0;
#X connect 3 0 11 0;
#X connect 3 0 12 1;
#X connect 4 0 5 0;
#X connect 5 0 7 1;
#X connect 5 0 8 0;
#X connect 6 0 2 0;
#X connect 7 0 5 0;
#X connect 8 0 6 1;
#X connect 9 0 5 0;
#X connect 10 0 13 0;
#X connect 11 1 10 0;
#X connect 12 0 2 0;
#X connect 13 0 12 0;
