#N canvas 265 96 407 447 12;
#X msg 115 68 bang;
#X obj 118 22 inlet;
#X obj 56 404 outlet;
#X obj 35 277 inlet;
#X obj 151 136 delay 1000;
#X obj 156 237 tgl 15 0 empty empty empty 17 7 0 10 -262144 -1 -1 1
1;
#X obj 53 340 spigot;
#X obj 78 198 spigot;
#X obj 156 275 !=;
#X obj 175 236 tgl 15 0 empty empty empty 17 7 0 10 -262144 -1 -1 1
1;
#X connect 0 0 4 0;
#X connect 0 0 7 0;
#X connect 1 0 0 0;
#X connect 3 0 6 0;
#X connect 4 0 5 0;
#X connect 5 0 7 1;
#X connect 5 0 8 0;
#X connect 6 0 2 0;
#X connect 7 0 5 0;
#X connect 8 0 6 1;
#X connect 9 0 8 1;
