#N canvas 864 696 525 364 12;
#X obj 80 21 inlet;
#X obj 307 21 inlet;
#X obj 107 319 outlet~;
#X obj 476 21 inlet;
#X text 18 22 Midi In;
#X text 144 21 bang if class detected;
#X text 369 23 Path to sample;
#X text 57 321 sound;
#X obj 143 200 SmoothGate;
#X obj 79 45 receive midi-data;
#X obj 143 115 poly 8 1;
#X obj 142 84 unpack f f;
#X obj 144 137 -1;
#X obj 143 171 pack 0 0 0;
#X obj 135 270 clone SimpleSampler 9;
#X connect 0 0 11 0;
#X connect 1 0 8 1;
#X connect 3 0 14 1;
#X connect 8 0 14 0;
#X connect 9 0 11 0;
#X connect 10 0 12 0;
#X connect 10 1 13 1;
#X connect 10 2 13 2;
#X connect 11 0 10 0;
#X connect 11 1 10 1;
#X connect 12 0 13 0;
#X connect 13 0 8 0;
#X connect 14 0 2 0;
