#N canvas 624 636 1101 461 12;
#X obj 80 21 inlet;
#X obj 381 18 inlet;
#X obj 198 344 outlet~;
#X text 18 22 Midi In;
#X text 218 18 bang if class detected;
#X text 148 346 sound;
#X obj 197 79 SmoothGate;
#X obj 194 40 receive midi-data;
#X obj 195 183 unpack f f;
#X obj 197 237 -1;
#X obj 198 265 pack 0 0 0;
#X obj 198 209 poly 5 1;
#X obj 197 308 clone SimpleSampler 6;
#X obj 625 122 bang;
#X obj 718 36 r mixmode;
#X obj 543 18 inlet;
#X obj 628 239 array get array-attack-lut;
#X obj 792 107 loadbang;
#X msg 792 129 1;
#X msg 280 270 all samples/\$1.wav;
#X text 443 19 calss number;
#X obj 718 65 select 0 1;
#X text 622 36 Arp: 0 mix 1;
#X msg 78 164 stop;
#X obj 854 239 array get array-release-lut;
#X obj 17 61 unpack f f;
#X obj 61 87 select 0;
#X obj 87 112 bang;
#X obj 82 138 del 200;
#X obj 339 230 r avgAttack;
#X obj 514 230 r avgRelease;
#X obj 595 293 pack f 100 20;
#X obj 423 230 r avgSustain;
#X msg 567 326 all \$1 \$2 \$3;
#X msg 288 162 0;
#X obj 288 192 switch~;
#X msg 255 136 1;
#X obj 288 137 del 1500;
#X msg 328 106 stop;
#X obj 287 108 bang;
#X obj 480 280 bang;
#X connect 0 0 6 0;
#X connect 0 0 25 0;
#X connect 1 0 6 1;
#X connect 6 0 8 0;
#X connect 6 0 36 0;
#X connect 6 0 38 0;
#X connect 6 1 11 0;
#X connect 6 1 39 0;
#X connect 7 0 6 0;
#X connect 8 0 11 0;
#X connect 8 1 11 1;
#X connect 9 0 10 0;
#X connect 10 0 12 0;
#X connect 11 0 9 0;
#X connect 11 1 10 1;
#X connect 11 2 10 2;
#X connect 12 0 2 0;
#X connect 13 0 24 0;
#X connect 13 0 16 0;
#X connect 14 0 21 0;
#X connect 14 0 23 0;
#X connect 15 0 16 0;
#X connect 15 0 19 0;
#X connect 15 0 24 0;
#X connect 16 0 31 0;
#X connect 17 0 18 0;
#X connect 18 0 16 1;
#X connect 18 0 24 1;
#X connect 19 0 12 1;
#X connect 21 0 13 0;
#X connect 23 0 11 0;
#X connect 24 0 31 2;
#X connect 25 1 26 0;
#X connect 26 1 27 0;
#X connect 27 0 28 0;
#X connect 28 0 23 0;
#X connect 29 0 31 0;
#X connect 30 0 31 2;
#X connect 30 0 40 0;
#X connect 31 0 33 0;
#X connect 32 0 31 1;
#X connect 32 0 40 0;
#X connect 33 0 12 2;
#X connect 34 0 35 0;
#X connect 36 0 35 0;
#X connect 37 0 34 0;
#X connect 38 0 37 0;
#X connect 39 0 37 0;
#X connect 40 0 31 0;
