#N canvas 865 446 702 364 12;
#X obj 80 21 inlet;
#X obj 307 21 inlet;
#X obj 107 319 outlet~;
#X obj 476 21 inlet;
#X text 18 22 Midi In;
#X text 144 21 bang if class detected;
#X text 369 23 Path to sample;
#X text 57 321 sound;
#X obj 143 200 SmoothGate;
#X obj 79 45 receive midi-data;
#X obj 142 84 unpack f f;
#X obj 144 137 -1;
#X obj 143 171 pack 0 0 0;
#X obj 143 115 poly 5 1;
#X obj 135 271 clone SimpleSampler 6;
#X obj 319 121 bang;
#X obj 400 108 r mixmode;
#X obj 592 24 inlet;
#X obj 298 244 pack f 20;
#X obj 365 298 print attackRelease;
#X msg 309 316 all \$1;
#X obj 324 205 array get array-attack-lut;
#X obj 465 161 loadbang;
#X msg 429 181 1;
#X connect 0 0 10 0;
#X connect 1 0 8 1;
#X connect 3 0 14 1;
#X connect 8 0 14 0;
#X connect 9 0 10 0;
#X connect 10 0 13 0;
#X connect 10 1 13 1;
#X connect 10 1 15 0;
#X connect 11 0 12 0;
#X connect 12 0 8 0;
#X connect 13 0 11 0;
#X connect 13 1 12 1;
#X connect 13 2 12 2;
#X connect 14 0 2 0;
#X connect 15 0 21 0;
#X connect 17 0 21 0;
#X connect 18 0 19 0;
#X connect 18 0 20 0;
#X connect 20 0 14 2;
#X connect 21 0 18 0;
#X connect 22 0 23 0;
#X connect 23 0 21 1;
