#N canvas 415 648 904 364 12;
#X obj 80 21 inlet;
#X obj 381 18 inlet;
#X obj 208 316 outlet~;
#X text 18 22 Midi In;
#X text 218 18 bang if class detected;
#X text 158 318 sound;
#X obj 217 197 SmoothGate;
#X obj 211 42 receive midi-data;
#X obj 216 81 unpack f f;
#X obj 216 140 -1;
#X obj 217 168 pack 0 0 0;
#X obj 217 112 poly 5 1;
#X obj 209 268 clone SimpleSampler 6;
#X obj 578 113 bang;
#X obj 718 36 r mixmode;
#X obj 543 18 inlet;
#X obj 517 236 pack f 20;
#X msg 383 313 all \$1;
#X obj 543 197 array get array-attack-lut;
#X obj 792 107 loadbang;
#X msg 792 129 1;
#X msg 228 232 all samples/\$1.wav;
#X obj 746 201 array get array-release-lut;
#X text 443 19 calss number;
#X obj 718 65 select 0 1;
#X text 622 36 Arp: 0 mix 1;
#X obj 126 179 select 0;
#X obj 133 238 spigot;
#X msg 126 201 1;
#X msg 162 203 0;
#X obj 17 61 unpack f f;
#X obj 117 103 bng 15 250 50 0 empty empty empty 17 7 0 10 -262144
-1 -1;
#X msg 65 112 0;
#X obj 4 135 pack f f;
#X obj 61 87 select 0;
#X obj 82 138 del 100;
#X obj 8 170 list;
#X connect 0 0 8 0;
#X connect 0 0 30 0;
#X connect 1 0 6 1;
#X connect 6 0 12 0;
#X connect 7 0 8 0;
#X connect 8 0 11 0;
#X connect 8 1 11 1;
#X connect 8 1 13 0;
#X connect 9 0 10 0;
#X connect 10 0 6 0;
#X connect 10 0 27 0;
#X connect 11 0 9 0;
#X connect 11 1 10 1;
#X connect 11 2 10 2;
#X connect 11 2 26 0;
#X connect 12 0 2 0;
#X connect 13 0 18 0;
#X connect 13 0 22 0;
#X connect 14 0 24 0;
#X connect 15 0 18 0;
#X connect 15 0 21 0;
#X connect 15 0 22 0;
#X connect 16 0 17 0;
#X connect 17 0 12 2;
#X connect 18 0 16 0;
#X connect 19 0 20 0;
#X connect 20 0 18 1;
#X connect 20 0 22 1;
#X connect 21 0 12 1;
#X connect 22 0 16 1;
#X connect 24 0 13 0;
#X connect 26 0 28 0;
#X connect 26 1 29 0;
#X connect 27 0 12 0;
#X connect 28 0 27 1;
#X connect 29 0 27 1;
#X connect 30 0 33 0;
#X connect 30 1 34 0;
#X connect 31 0 32 0;
#X connect 31 0 35 0;
#X connect 32 0 33 1;
#X connect 33 0 36 1;
#X connect 34 1 31 0;
#X connect 35 0 36 0;
#X connect 36 0 8 0;
