#N canvas 571 232 1135 721 12;
#X msg 239 296 next \$1;
#X obj 148 80 inlet;
#X obj 375 80 inlet;
#X obj 175 378 outlet~;
#X obj 544 80 inlet;
#X obj 239 265 smoothGate;
#X obj 239 328 clone SimpleSampler 8;
#X text 86 81 Midi In;
#X text 212 80 bang if class detected;
#X text 437 82 Path to sample;
#X text 125 380 sound;
#X connect 0 0 6 0;
#X connect 1 0 5 0;
#X connect 2 0 5 1;
#X connect 4 0 6 1;
#X connect 5 0 0 0;
#X connect 6 0 3 0;
