#N canvas 453 664 653 413 12;
#X obj 154 174 *~ 0.5;
#X obj 154 126 *~;
#X obj 154 102 line~;
#X obj 154 238 outlet~;
#X obj 147 19 inlet;
#X text 28 70 line propertys in;
#X obj 154 150 tabread4~ \$2-mySample;
#X obj 243 74 r \$2-file_duration;
#X msg 244 256 \$1 \, \$2 \$3;
#X obj 342 217 pack f f f;
#X msg 31 55 0.2 \, 1.2 1000;
#X obj 413 170 r \$2-playbackSpeed;
#X obj 322 122 t f f;
#X obj 368 175 + 1;
#X obj 229 38 t f b;
#X obj 449 25 t b b;
#X msg 517 70 1;
#X obj 459 139 line~;
#X obj 169 211 *~;
#X msg 558 113 0;
#X msg 397 71 0;
#X obj 456 71 del 40;
#X obj 458 110 pack f 60;
#X connect 0 0 18 0;
#X connect 1 0 6 0;
#X connect 2 0 1 0;
#X connect 4 0 14 0;
#X connect 6 0 0 0;
#X connect 7 0 1 1;
#X connect 8 0 2 0;
#X connect 9 0 8 0;
#X connect 10 0 2 0;
#X connect 11 0 9 2;
#X connect 12 0 9 0;
#X connect 12 1 13 0;
#X connect 13 0 9 1;
#X connect 14 0 12 0;
#X connect 14 1 20 0;
#X connect 14 1 15 0;
#X connect 15 0 21 0;
#X connect 15 1 16 0;
#X connect 16 0 22 0;
#X connect 17 0 18 1;
#X connect 18 0 3 0;
#X connect 19 0 22 0;
#X connect 20 0 17 0;
#X connect 21 0 19 0;
#X connect 22 0 17 0;
